<?xml version="1.0" encoding="UTF-8" standalone="no"?>
<!-- Created with Inkscape (http://www.inkscape.org/) -->

<svg
   xmlns:dc="http://purl.org/dc/elements/1.1/"
   xmlns:cc="http://creativecommons.org/ns#"
   xmlns:rdf="http://www.w3.org/1999/02/22-rdf-syntax-ns#"
   xmlns:svg="http://www.w3.org/2000/svg"
   xmlns="http://www.w3.org/2000/svg"
   xmlns:sodipodi="http://sodipodi.sourceforge.net/DTD/sodipodi-0.dtd"
   xmlns:inkscape="http://www.inkscape.org/namespaces/inkscape"
   id="svg3336"
   version="1.1"
   inkscape:version="0.91 r13725"
   xml:space="preserve"
   width="387.91989"
   height="745.61554"
   viewBox="0 0 387.91989 745.61554"
   sodipodi:docname="StylisedTree2.svg"><metadata
     id="metadata3342"><rdf:RDF><cc:Work
         rdf:about=""><dc:format>image/svg+xml</dc:format><dc:type
           rdf:resource="http://purl.org/dc/dcmitype/StillImage" /><dc:title></dc:title></cc:Work></rdf:RDF></metadata><defs
     id="defs3340" /><sodipodi:namedview
     pagecolor="#ffffff"
     bordercolor="#666666"
     borderopacity="1"
     objecttolerance="10"
     gridtolerance="10"
     guidetolerance="10"
     inkscape:pageopacity="0"
     inkscape:pageshadow="2"
     inkscape:window-width="1600"
     inkscape:window-height="837"
     id="namedview3338"
     showgrid="false"
     fit-margin-top="0"
     fit-margin-left="0"
     fit-margin-right="0"
     fit-margin-bottom="0"
     inkscape:zoom="0.89858641"
     inkscape:cx="193.95995"
     inkscape:cy="372.80777"
     inkscape:window-x="-8"
     inkscape:window-y="-8"
     inkscape:window-maximized="1"
     inkscape:current-layer="g3344" /><g
     id="g3344"
     inkscape:groupmode="layer"
     inkscape:label="flag-1040594"
     transform="matrix(1.25,0,0,-1.25,-153.9647,896.06497)"><path
       d=""
       style="fill:#ee293d;fill-opacity:1;fill-rule:nonzero;stroke:#000000;stroke-width:0.25;stroke-linecap:butt;stroke-linejoin:miter;stroke-miterlimit:4;stroke-dasharray:none;stroke-opacity:1"
       id="path3348"
       inkscape:connector-curvature="0" /><path
       d="m 301.715,185.80778 c 2.23749,27.3354 -0.32131,70.35086 -7.49238,101.22525 17.3337,5.44658 30.03643,21.4253 38.72331,33.73131 53.2712,-21.54561 89.70363,12.5334 98.31913,41.91013 -9.00774,-8.22336 -25.46341,-16.84333 -40.73789,-19.97675 -3.91333,-0.80237 -5.48666,1.08314 -1.17662,3.52556 23.5067,13.31787 36.43233,33.68677 38.38895,54.05576 -12.53331,-11.35668 -20.76114,-11.35668 -30.55335,-11.35668 -4.71569,0 -23.11009,-0.39251 -30.16121,-12.92564 -3.19576,-5.68281 -7.44336,-1.56885 -6.26674,1.56448 1.17223,3.13332 1.9567,7.05112 1.9567,11.75339 0,4.6978 -1.56894,10.57669 16.84334,23.50223 3.02644,2.12165 2.74118,3.9178 -0.7841,3.13342 -44.66912,-9.92604 -58.75804,-47.00464 -48.18135,-76.38585 -10.67472,-24.16192 -29.94277,-31.66324 -40.85373,-36.89586 -0.094,0.2492 -0.18256,0.50844 -0.27658,0.7622 -12.33733,33.49061 -22.91401,77.55799 -19.58452,107.425 0.52121,4.67552 0,12.14563 8.22774,12.93001 10.97787,1.04298 20.76123,5.87451 28.98459,13.31787 8.22783,7.44336 19.0675,5.25936 26.63564,1.17224 24.67894,-13.31787 57.97795,5.48665 65.32327,19.98113 4.05143,8.00055 0.23642,6.98878 -3.53003,4.10949 -9.98838,-7.63505 -21.73731,-8.81176 -35.83956,-3.52118 -4.87607,1.82746 -4.70227,5.60706 1.46635,5.2862 22.62428,-1.17671 39.36958,17.92201 48.47545,33.20088 1.75608,2.94173 1.27922,4.8182 -2.05474,2.93725 -13.51394,-7.63943 -19.38836,-5.87888 -27.61619,-2.93725 -8.22783,2.93725 -15.86279,4.40369 -27.02788,-3.81967 -5.25042,-3.87325 -5.29058,1.17214 -0.58877,4.69771 4.70227,3.52565 3.23137,8.81623 15.57316,15.57315 2.62516,1.43522 4.70218,3.88211 0.87813,4.1094 -34.37321,2.05922 -42.01264,-14.98028 -51.70682,-41.13004 -9.69427,-26.14537 -13.51394,-27.91039 -35.54544,-37.31046 -8.12971,-3.46759 -6.41371,1.73828 -4.40807,5.58478 14.39645,27.61619 28.49432,49.0593 37.89877,85.78583 1.04298,4.0738 2.34885,8.51747 3.52556,9.69418 9.10587,9.10586 22.03141,14.69064 23.79643,16.7453 1.76054,2.05474 3.46769,2.77678 7.34532,1.47091 24.38483,-8.22784 52.58933,0.29392 61.9894,20.56506 2.26861,4.8894 1.17661,6.46273 -1.17671,4.99191 -10.91991,-6.82383 -19.68256,-7.05113 -27.02788,-7.05113 -7.34533,0 -7.32296,3.69051 -0.29393,4.99638 12.63134,2.34895 27.61619,17.92202 30.25924,31.73016 1.1276,5.88336 -1.76054,5.87441 -5.5803,2.05465 -3.81977,-3.81967 -10.28258,-4.99638 -17.62781,-4.40807 -17.5788,1.40847 -20.27096,-4.99191 -24.09063,-11.45472 -3.81976,-6.4672 -4.11396,-2.05913 -4.11396,0.29392 0,2.34886 -1.17662,5.87442 2.05921,8.81167 3.23137,2.93726 2.93726,8.22784 12.92554,14.10225 4.88949,2.87482 4.992,4.99647 0.19626,5.67834 -22.10727,3.16008 -36.43233,-18.02004 -37.21233,-36.03562 -0.78411,-18.02005 -1.56895,-23.50232 -14.49449,-35.25571 -4.18078,-3.80187 -6.7436,-3.7796 -5.48674,0.7841 9.40454,34.07901 8.22783,54.54604 -4.99191,84.21697 -1.49756,3.36509 -2.34894,5.58469 -0.49018,8.22775 11.91378,16.92814 3.52556,47.78901 -11.85143,61.98939 -4.88055,4.51058 -5.87451,2.64306 -4.6978,0 3.28038,-7.3854 -2.05922,-17.3337 1.17223,-30.55344 0.37882,-1.53773 -2.34894,-9.10587 -4.69779,-1.76502 -3.62807,11.33441 -20.27087,15.86727 -22.91839,28.4987 -0.66453,3.17796 -1.73828,4.08722 -3.52119,2.34894 -10.87079,-10.5723 -7.34523,-29.37682 6.75255,-42.00825 4.3323,-3.88211 1.47081,-4.40807 -2.64306,-2.94164 -4.10949,1.47082 -10.28257,4.99638 -17.91754,12.93001 -2.30878,2.39349 -5.33074,2.97742 -4.70227,-1.47081 3.52557,-24.97314 29.96514,-39.95342 48.76966,-37.31037 5.15238,0.7266 5.86994,1.33262 7.63496,-2.25082 14.98476,-30.36184 3.53003,-76.77808 -10.18445,-126.13595 -2.43804,-8.77607 -5.09004,-5.09004 -9.00783,-3.13342 -10.67473,5.33522 -24.2867,20.36899 -28.2045,24.28679 -3.9178,3.9178 -3.59686,5.9814 -2.74109,9.39998 5.09441,20.36899 -7.44336,44.26355 -32.12239,61.49912 -7.33638,5.12564 -8.22336,0.39251 -3.52556,-4.30556 4.70227,-4.70227 7.83559,-18.41228 9.0123,-25.46341 1.17224,-7.05112 -1.17671,-8.22783 -4.31003,-0.39251 -3.13333,7.8356 -16.05896,11.7534 -26.24788,10.96893 -10.18445,-0.78411 -14.88225,5.87441 -19.19229,12.14563 -4.31003,6.26665 -4.76461,1.56438 -4.6978,-0.78411 0.38795,-14.10225 9.40007,-36.43233 29.37683,-44.65569 7.21598,-2.97286 5.48218,-5.48666 0,-6.27113 -5.48674,-0.77954 -13.7101,0 -24.67903,1.96109 -5.83434,1.04298 -8.46398,0.12506 -4.31003,-5.09441 16.84343,-21.149 35.25571,-20.369 66.59354,-19.58452 13.59417,0.33865 11.75339,0.39251 15.67119,-2.74109 3.91333,-3.13342 10.18445,-8.62007 18.60398,-17.23567 12.48876,-12.78296 9.19048,-12.78743 5.29058,-18.80452 -28.20459,-43.47898 -35.84403,-92.83695 -27.42459,-121.82592 3.53003,-12.14116 0.39707,-9.00774 -4.6978,-4.6978 -5.09442,4.31004 -9.39998,10.18454 -17.23558,18.02005 -5.87441,5.87451 -7.05112,9.79231 -7.44336,25.85126 -0.39251,16.05887 -0.39251,48.96564 -45.44016,60.3268 -5.89669,1.48424 -6.26666,-1.96109 -2.74109,-3.52556 11.04916,-4.91167 12.53339,-16.06334 14.10225,-27.02788 1.56447,-10.96893 -0.78411,-9.40446 -7.44337,0.78045 -6.65888,10.18454 -12.92554,9.01231 -26.2434,8.62007 -13.31778,-0.39251 -21.54561,3.9178 -32.1223,18.02005 -2.74109,-26.64012 18.80452,-50.92682 45.04793,-60.32689 6.64994,-2.38007 5.48218,-5.48218 0.78411,-5.48218 -4.70228,0 -11.7534,0.77955 -16.45567,3.9178 -4.6978,3.13333 -5.48218,2.74109 -10.18445,3.52109 -4.6978,0.78411 -12.14116,3.53004 -15.27449,6.27113 -3.13332,2.74109 -3.9178,0.39251 -0.58785,-7.63944 7.75089,-18.69306 51.70682,-51.11851 89.31139,-25.85564 11.16499,-7.05113 19.47214,-22.97777 37.68836,-35.31509 11.20715,-12.21235 13.0205,-20.05608 13.6089,-23.58164 0.58785,-3.52556 4.63841,-13.43453 7.41685,-24.17441 4.11387,-9.40007 2.74037,-19.68737 2.39715,-29.15426 -0.86443,-23.6805 -1.08752,-58.17401 -1.14996,-79.51908 l -0.84262,-27.7898 c -1.01176,-7.18486 -3.07098,-15.04711 -6.82383,-21.37172 -4.43035,-7.46126 0.58785,-8.81176 5.2861,-8.22336 4.70228,0.5842 14.10225,0 19.98123,-1.76502 5.87442,-1.76055 4.11388,0 2.93717,5.29058 -0.90917,4.08265 -2.13051,11.78452 -0.2136,28.04402 l 4.23856,30.31308 z"
       style="fill:#fab217;fill-opacity:1;fill-rule:nonzero;stroke:#000000;stroke-width:2.28203559;stroke-linecap:butt;stroke-linejoin:miter;stroke-miterlimit:4;stroke-dasharray:none;stroke-opacity:1"
       id="path3354"
       inkscape:connector-curvature="0"
       sodipodi:nodetypes="cccccccsccscccccsccccccscccccccccccsccccsccsccsccccccccccccccccccccccscccccscccccccccccccccccscccsccsccccccccccccccc" /></g></svg>