<svg xmlns="http://www.w3.org/2000/svg" viewBox="0 0 356 367" fill="currentColor">
  <path d="M90.5 354C51.8 340.1 23.7 305.8 12.6 258.6c-5-21.4-6.5-56.7-2.3-56.7 1.4 0 5.1 9.7 8.3 21.6 6.9 25.9 18.6 50.3 29.9 62.3 18.8 19.8 65.5 27.6 92.4 15.4 20.9-9.5 29.4-32.1 20.3-54.1-7-17-23-22.7-52.7-18.8 0 0-18.2-19.6-24.1-54.4l18.7 1.7c22.5 2 39.5-3 48.3-14.2 8.3-10.5 8.1-14.6-1.1-25.3C137 120.5 113.2 124.4 64.8 150L40.4 109.1l10.2-7.8C76.3 81.7 120.8 71.9 146.1 80.3c23.1 7.6 40 37.8 35.5 63.3-3.1 17.2-16.9 41.4-27.6 48.2l-9.2 5.8 12.7 5.7c21.6 9.7 34.8 2.3 50.6-28.5 21.8-42.7 35.9-53.7 68.8-53.8 15.3 0 20.8 1.6 31.9 9.4 27.9 19.5 43.1 60 39.7 105.9-4.2 58.1-31.7 93.3-72.9 93.3-22.6 0-37.1-7.9-48.7-26.5-10.2-16.3-14.8-48.7-8.9-62.9 2.8-6.8 3.3-7.1 3.5-1.6.3 10 11.8 26.4 22.3 31.8 25.7 13.3 62.6-3.4 77.3-35 11.1-24 5.1-70.2-10.1-78.3-3.2-1.7-11.1-3.1-17.5-3.1-13.7 0-24.4 9.8-39.5 36.2-5.2 9.1-14 20.9-19.5 26.1-8.9 8.6-12.1 9.6-30 9.6h-20l6.5 14.4c9.3 20.6 8.8 54 -1 74.3-8.6 18-28.7 36.2-44.7 40.6-15.6 4.3-40.9 3.8-54.9-1.2zm75.3-278c-8.9-15.1-14.3-43.3-8.4-43.3 7 15.1 21.3 28.6 36.6 38 27.5 13.3 55.4 7.9 85.8-16.5 6.7-5.4 12.6-9.2 13.2-8.5 7.4 11.5 20.3 21 24.5 34.4 0 5.7-24.4 21.9-43.6 29.1C226.4 122.9 194 117.4 165.8 75.9zm24 -34.9l31-34.4 34.5 31.9C243.5 48.2 235 63.3 221.5 70.9c-10.6-7.8-26.5-17.1-31.7-29.9z"/>
</svg>
