<?xml version="1.0" encoding="UTF-8" standalone="no"?>
<!-- Created with Inkscape (http://www.inkscape.org/) -->
<svg xmlns:inkscape="http://www.inkscape.org/namespaces/inkscape" xmlns:rdf="http://www.w3.org/1999/02/22-rdf-syntax-ns#" xmlns:ns1="http://sozi.baierouge.fr" xmlns:dc="http://purl.org/dc/elements/1.1/" xmlns="http://www.w3.org/2000/svg" xmlns:cc="http://web.resource.org/cc/" xmlns:xlink="http://www.w3.org/1999/xlink" xmlns:sodipodi="http://sodipodi.sourceforge.net/DTD/sodipodi-0.dtd" id="svg2" version="1.0" viewBox="0 0 814.23 891.94" inkscape:version="0.91 r13725">
  <g id="layer1" transform="translate(36.152 -89.664)">
    <path id="path2487" style="fill-rule:evenodd;stroke:#000000;stroke-width:7;fill:#8e5d44" d="m205.71 475.22c-9.29 9.38-11.42 25.95-11.42 45.71v48.58c0 15.74 1.89 27.57 5.71 42.85 5.07 20.27-13.19 23.74-22.86 28.57-8.26 4.13-28.46 22.86-8.57 22.86 16.72 0 24.62-4.26 34.29-17.14 11.61-15.48 25.94-19.09 31.43 2.86 3.57 14.3 14.49 32.96 28.57 40 18.48 9.23 14.28-3.84 14.28-22.86 0-14.84-0.44-29.65 2.86-42.86 0.36-1.43 34.3 26.44 37.14 28.57 15.52 11.64 15.94 19.18 37.15 8.57 16.83-8.41-23.17-34.59-25.72-37.14-10.14-10.14-23.01-23.65-25.71-37.14-2.34-11.68-16.5-17.4-20-31.43-3.12-12.46 0-29.94 0-42.86 0-14.69-17.63-29.4-25.72-31.43-20.8-5.2-26.31-10.73-51.43-5.71z"/>
    <path id="path3259" style="fill-rule:evenodd;stroke:#000000;stroke-width:7;fill:#e3a8ca" d="m189.46 498.5c-10.9 5.04-24.22 8.57-45.71 8.57-22.01 0-33.2-2.75-48.576-14.28-14.202-10.65-23.346-4.81-28.572-25.72-5.615-22.46-3.433-16.85-20-8.57-14.963 7.48-33.152-3.72-42.857-8.57-13.672-6.83-21.679-46.21-25.714-54.28-5.159-10.32 12.492-28.18 14.286-37.15 2.8834-14.42-8.104-28.1-14.286-34.28-6.884-6.89-2.857-38.33-2.857-48.57 0-20.81 0.99-41.11 5.714-60 5.177-20.71 36.587-16.46 54.286-20 28.124-5.63 24.73 1.03 34.285-22.86 4.789-11.97 19.632-19.91 31.431-22.86 25.97-6.49 29.82 6.07 40-14.28 8.74-17.49 22.3-21.61 42.86-25.72 22.3-4.46 38.67-2.19 57.14-11.427 20.2-10.101 65.19-3.983 85.71 2.857 18.43 6.14 36 15.44 40 31.43 0.62 2.47 56.64 0 68.57 0 12.3 0 25.42 13.09 28.58 25.71 4.01 16.07 8.57 24.57 8.57 42.86 0 28.52 28.64 19.46 51.43 28.57 12.14 4.86 20.33 27.06 22.85 37.14 3.07 12.26 2.86 26.1 2.86 40 0 16.86-10.03 30.04-17.14 37.15-17.02 17.02 0 23.42 0 42.85 0 17.26-6.87 27.43-22.86 31.43-19.86 4.97-27.15 12.87-31.43 17.15-9.28 9.28-7.08 27.45-20 37.14-14.82 11.11-27.85 14.28-51.43 14.28h-48.57c-19.71 0-31.68-9.22-45.71-5.71-14.57 3.64-15.39 20.99-34.29 25.71-13.38 3.35-33.83 0.12-45.71-2.85-17.33-4.33-23.66-9.56-42.86-5.72z"/>
    <path id="path3263" style="fill-rule:evenodd;stroke:#000000;stroke-width:7;fill:#e0bdd1" d="m2.6167 333.32c-1.8197-2.51-5.3438-11.03-5.3438-17.1 0-7.59 0.6353-9.82 3.2063-14.97 2.1538-4.3 7.9789-6.53 11.756-7.48 7.537-1.88 10.07 2.59 12.825 5.35 3.027 3.02 3.207 10.75 3.207 14.96 0 4.73 1.179 9.18 0 13.89-2.347 9.39-2.355 4.71 1.069-2.14 1.46-2.92 12.97-6.55 14.962-8.55 4.423-4.42 10.584-3.2 18.169-3.2 4.947 0 7.351 8.03 8.55 12.82 1.745 6.98 4.512 7.53-1.069 14.97-3.696 4.92-4.187 7.97-9.619 10.68-8.913 4.46-20.092-0.42-8.55 5.35 4.602 2.3 5.506 7.7 8.55 11.75 3.109 4.15 4.713 8.94 3.207 14.97-1.338 5.35-5.361 7.48-9.619 8.55-6.061 1.51-9.549 5.41-14.963 0-5.096-5.1-7.483-6.42-9.618-11.76-1.056-2.64-6.795-14.35-4.276-4.27 1.338 5.35-0.454 12.66-2.137 16.03-3.255 6.51-12.304 7.48-20.306 7.48-8.5215 0-13.894-3.39-13.894-11.76 0-6.31 0.708-10.31 2.1374-16.03 1.8602-7.44 8.796-11.28-2.1374-8.55-7.284 1.82-12.616-3-16.031-6.41-4.462-4.46-5.344-10.73-5.344-17.1 0-9.17 0.937-8.49 7.481-11.76 8.241-4.12 11.438-1.23 18.169 2.14 2.5334 1.27 5.5611 1.32 9.6187 2.14z"/>
    <path id="path3266" style="fill-rule:evenodd;stroke:#000000;stroke-width:7;fill:#e0bdd1" d="m142.53 215.18c-2.03-2.34-6.28-10.52-6.81-16.57-0.66-7.55-0.22-9.84 1.89-15.19 1.77-4.47 7.38-7.2 11.06-8.47 7.34-2.54 10.26 1.7 13.24 4.2 3.28 2.75 4.13 10.44 4.5 14.63 0.41 4.71 1.97 9.04 1.21 13.84-1.52 9.56-1.94 4.9 0.88-2.22 1.2-3.04 12.35-7.67 14.16-9.82 4.02-4.79 10.26-4.12 17.82-4.78 4.93-0.43 8.02 7.36 9.63 12.03 2.35 6.8 5.15 7.1 0.24 15-3.25 5.23-3.47 8.3-8.65 11.48-8.49 5.22-20.05 1.33-8.05 6.07 4.79 1.89 6.16 7.19 9.54 10.97 3.46 3.86 5.48 8.49 4.5 14.62-0.87 5.45-4.69 7.93-8.84 9.36-5.9 2.04-9.04 6.23-14.9 1.3-5.52-4.63-8.02-5.74-10.61-10.87-1.28-2.54-8.02-13.71-4.63-3.88 1.8 5.21 0.65 12.65-0.73 16.15-2.68 6.77-11.61 8.53-19.58 9.22-8.49 0.75-14.13-2.16-14.86-10.5-0.55-6.28-0.2-10.33 0.73-16.15 1.2-7.58 7.78-12.01-2.88-8.33-7.09 2.44-12.83-1.89-16.53-4.99-4.83-4.06-6.25-10.23-6.81-16.57-0.8-9.14 0.19-8.54 6.43-12.37 7.85-4.82 11.29-2.22 18.28 0.55 2.64 1.04 5.66 0.83 9.77 1.29z"/>
    <path id="path3268" style="fill-rule:evenodd;stroke:#000000;stroke-width:7;fill:#e0bdd1" d="m355.31 133.46c-1.82-2.51-5.35-11.03-5.35-17.1 0-7.58 0.64-9.82 3.21-14.96 2.15-4.311 7.98-6.54 11.75-7.485 7.54-1.884 10.07 2.589 12.83 5.344 3.03 3.031 3.21 10.761 3.21 14.961 0 4.73 1.17 9.18 0 13.9-2.35 9.38-2.36 4.7 1.06-2.14 1.46-2.92 12.97-6.56 14.97-8.55 4.42-4.42 10.58-3.21 18.17-3.21 4.94 0 7.35 8.03 8.55 12.83 1.74 6.98 4.51 7.52-1.07 14.96-3.7 4.93-4.19 7.97-9.62 10.69-8.91 4.45-20.09-0.43-8.55 5.34 4.6 2.3 5.5 7.7 8.55 11.76 3.11 4.14 4.71 8.94 3.2 14.96-1.33 5.35-5.36 7.48-9.61 8.55-6.07 1.51-9.55 5.41-14.97 0-5.09-5.1-7.48-6.42-9.62-11.76-1.05-2.64-6.79-14.35-4.27-4.27 1.34 5.35-0.46 12.66-2.14 16.03-3.25 6.51-12.3 7.48-20.3 7.48-8.53 0-13.9-3.39-13.9-11.76 0-6.31 0.71-10.31 2.14-16.03 1.86-7.44 8.79-11.28-2.14-8.55-7.28 1.82-12.61-2.99-16.03-6.41-4.46-4.46-5.34-10.73-5.34-17.1 0-9.17 0.93-8.48 7.48-11.76 8.24-4.12 11.44-1.22 18.17 2.14 2.53 1.27 5.56 1.33 9.62 2.14z"/>
    <path id="path3270" style="fill-rule:evenodd;stroke:#000000;stroke-width:7;fill:#e0bdd1" d="m303.54 295.46c-1.91-2.44-5.73-10.83-5.94-16.9-0.27-7.58 0.29-9.84 2.68-15.06 2-4.38 7.75-6.82 11.49-7.89 7.46-2.15 10.15 2.23 13 4.89 3.13 2.92 3.58 10.64 3.73 14.84 0.16 4.73 1.5 9.13 0.48 13.89-2.01 9.46-2.19 4.79 1-2.18 1.35-2.97 12.73-7 14.65-9.06 4.27-4.58 10.47-3.58 18.05-3.84 4.94-0.17 7.62 7.77 8.99 12.52 1.99 6.91 4.77 7.36-0.55 14.99-3.52 5.05-3.9 8.11-9.24 11.02-8.75 4.76-20.09 0.27-8.35 5.63 4.68 2.14 5.77 7.51 8.95 11.46 3.25 4.03 5.02 8.76 3.73 14.84-1.15 5.39-5.1 7.66-9.32 8.88-6 1.72-9.35 5.74-14.95 0.52-5.27-4.92-7.7-6.15-10.02-11.41-1.15-2.61-7.3-14.11-4.43-4.13 1.53 5.3-0.01 12.68-1.57 16.1-3.03 6.62-12.04 7.91-20.03 8.18-8.52 0.3-14.01-2.89-14.3-11.26-0.22-6.31 0.35-10.33 1.58-16.1 1.6-7.5 8.39-11.58-2.44-8.47-7.21 2.08-12.71-2.55-16.24-5.85-4.62-4.3-5.72-10.53-5.94-16.9-0.32-9.16 0.64-8.51 7.07-12.01 8.09-4.4 11.38-1.63 18.23 1.5 2.57 1.18 5.6 1.13 9.69 1.8z"/>
    <path id="path3272" style="fill-rule:evenodd;stroke:#000000;stroke-width:7;fill:#e0bdd1" d="m150.21 402.98c-2.37-1.99-7.87-9.39-9.35-15.28-1.84-7.36-1.77-9.68-0.53-15.29 1.04-4.71 6.15-8.29 9.58-10.12 6.85-3.67 10.4 0.05 13.74 2.05 3.67 2.2 5.73 9.66 6.75 13.73 1.16 4.59 3.38 8.62 3.39 13.48 0.01 9.68-1.14 5.14 0.51-2.33 0.71-3.19 10.99-9.52 12.43-11.94 3.22-5.37 9.49-5.69 16.84-7.54 4.8-1.2 9.09 6 11.42 10.36 3.39 6.34 6.21 6.19 2.61 14.77-2.38 5.68-2.12 8.75-6.73 12.71-7.55 6.49-19.59 4.48-6.99 7.26 5.03 1.12 7.22 6.13 11.16 9.32 4.03 3.27 6.75 7.53 6.75 13.73 0.01 5.52-3.37 8.57-7.24 10.64-5.51 2.95-7.94 7.58-14.51 3.65-6.19-3.71-8.82-4.4-12.2-9.06-1.66-2.31-10.08-12.27-5.18-3.11 2.6 4.87 2.64 12.4 1.83 16.07-1.57 7.11-10.11 10.25-17.87 12.2-8.27 2.08-14.3 0.1-16.34-8.01-1.54-6.12-1.83-10.18-1.84-16.07 0-7.67 5.79-13.09-4.15-7.77-6.62 3.54-12.97 0.16-17.11-2.32-5.42-3.24-7.8-9.11-9.35-15.28-2.23-8.89-1.16-8.46 4.39-13.23 6.99-6 10.8-3.97 18.14-2.35 2.77 0.61 5.72-0.07 9.85-0.27z"/>
    <path id="path3274" style="fill-rule:evenodd;stroke:#000000;stroke-width:7;fill:#e0bdd1" d="m389.51 434.85c-1.82-2.51-5.35-11.03-5.35-17.1 0-7.59 0.64-9.82 3.21-14.96 2.15-4.31 7.98-6.54 11.75-7.49 7.54-1.88 10.07 2.59 12.83 5.35 3.03 3.02 3.21 10.75 3.21 14.96 0 4.73 1.17 9.18 0 13.89-2.35 9.39-2.36 4.71 1.06-2.13 1.46-2.92 12.97-6.56 14.97-8.55 4.42-4.43 10.58-3.21 18.17-3.21 4.94 0 7.35 8.03 8.55 12.83 1.74 6.97 4.51 7.52-1.07 14.96-3.7 4.93-4.19 7.97-9.62 10.69-8.91 4.45-20.09-0.43-8.55 5.34 4.6 2.3 5.5 7.7 8.55 11.76 3.11 4.14 4.71 8.93 3.2 14.96-1.33 5.35-5.36 7.48-9.61 8.55-6.07 1.51-9.55 5.41-14.97 0-5.09-5.1-7.48-6.42-9.62-11.76-1.05-2.64-6.79-14.35-4.27-4.27 1.34 5.35-0.46 12.66-2.14 16.03-3.25 6.51-12.3 7.48-20.3 7.48-8.53 0-13.9-3.39-13.9-11.76 0-6.31 0.71-10.31 2.14-16.03 1.86-7.44 8.8-11.28-2.14-8.55-7.28 1.82-12.61-3-16.03-6.41-4.46-4.46-5.34-10.73-5.34-17.1 0-9.17 0.93-8.49 7.48-11.76 8.24-4.12 11.44-1.23 18.17 2.14 2.53 1.27 5.56 1.33 9.62 2.14z"/>
    <path id="path3276" style="fill-rule:evenodd;stroke:#000000;stroke-width:7;fill:#e0bdd1" d="m503.36 285.59c-1.72-2.58-4.9-11.23-4.66-17.3 0.31-7.58 1.03-9.79 3.81-14.82 2.32-4.22 8.23-6.21 12.04-7 7.61-1.58 9.96 2.99 12.6 5.85 2.91 3.15 2.78 10.88 2.61 15.08-0.19 4.73 0.81 9.22-0.56 13.88-2.72 9.29-2.54 4.61 1.15-2.09 1.58-2.86 13.23-6.03 15.3-7.94 4.59-4.24 10.7-2.78 18.28-2.48 4.94 0.2 7.02 8.32 8.03 13.16 1.46 7.04 4.2 7.7-1.67 14.91-3.89 4.77-4.5 7.79-10.04 10.29-9.08 4.1-20.06-1.23-8.76 5 4.51 2.48 5.2 7.91 8.07 12.09 2.94 4.26 4.35 9.12 2.61 15.08-1.55 5.29-5.66 7.26-9.96 8.15-6.11 1.27-9.76 5.03-14.95-0.6-4.89-5.29-7.22-6.71-9.14-12.13-0.95-2.68-6.21-14.62-4.1-4.44 1.13 5.4-0.96 12.63-2.78 15.93-3.51 6.37-12.59 6.98-20.59 6.66-8.51-0.34-13.74-3.94-13.41-12.31 0.26-6.3 1.12-10.27 2.78-15.93 2.16-7.36 9.24-10.92-1.79-8.63-7.35 1.53-12.49-3.5-15.76-7.05-4.28-4.63-4.91-10.94-4.65-17.3 0.36-9.16 1.27-8.44 7.94-11.44 8.4-3.79 11.48-0.77 18.07 2.86 2.48 1.37 5.5 1.55 9.53 2.52z"/>
    <path id="path3282" style="fill-rule:evenodd;stroke:#000000;stroke-width:7;fill:#e0bdd1" d="m519.41 507.3c-0.96-0.73 3.42 23.29 4.28 26.72 1.66 6.64 7.36 12.66 10.69 17.1 3.12 4.16 9.77 5.34 16.03 5.34 4.74 0 10.63-4.22 12.82-6.41 4.65-4.64 5.35-8.71 5.35-16.03 0-8.22-2.31-10.97-5.35-16.03-2.05-3.43-18.56-5.64-22.44-6.42-6-1.2-7.81-5.34-16.03-5.34-1.82 0-3.56 0.71-5.35 1.07z"/>
    <path id="path3284" style="fill-rule:evenodd;stroke:#000000;stroke-width:7;fill:#e0bdd1" d="m664.14 373.36c-0.41-1.13-10.05 21.3-11.23 24.62-2.29 6.46-0.88 14.63-0.56 20.16 0.3 5.2 5.19 9.86 10.4 13.32 3.94 2.63 11.19 2.37 14.23 1.76 6.43-1.3 9.27-4.29 13.32-10.4 4.55-6.84 4.15-10.41 4.42-16.31 0.18-3.99-12.34-14.96-15.14-17.76-4.34-4.32-3.55-8.77-10.4-13.32-1.51-1-3.36-1.38-5.04-2.07z"/>
    <path id="path3286" style="fill-rule:evenodd;stroke:#000000;stroke-width:7;fill:#e0bdd1" d="m703.13 551.14c-0.83-0.87-0.34 23.54-0.05 27.06 0.58 6.83 5.25 13.68 7.82 18.59 2.42 4.61 8.79 6.83 14.97 7.84 4.68 0.75 11.17-2.47 13.69-4.28 5.32-3.84 6.66-7.74 7.83-14.98 1.32-8.1-0.52-11.19-2.71-16.67-1.48-3.72-17.42-8.54-21.13-9.92-5.73-2.15-6.85-6.53-14.97-7.84-1.79-0.29-3.63 0.13-5.45 0.2z"/>
    <path id="path3288" style="fill-rule:evenodd;stroke:#000000;stroke-width:7;fill:#e0bdd1" d="m35.639 519.07c0.052-1.2-17.29 15.98-19.63 18.62-4.547 5.13-6.2926 13.24-8.0718 18.48-1.6711 4.93 1.1137 11.09 4.6478 16.25 2.677 3.91 9.489 6.39 12.537 6.96 6.453 1.21 10.203-0.51 16.247-4.65 6.778-4.64 7.747-8.1 10.208-13.47 1.667-3.63-5.837-18.5-7.389-22.14-2.399-5.62 0-9.46-4.648-16.24-1.026-1.5-2.6-2.54-3.901-3.81z"/>
    <path id="path3290" style="stroke-linejoin:round;fill-rule:evenodd;stroke:#000000;stroke-linecap:round;stroke-width:7;fill:#5ec2f1" d="m133.59 729.6l-108.2 242.87 369.77 5.63 379.42-8.84-103.4-247.14-271.21-5.91-266.38 13.39z"/>
    <path id="path3368" style="fill-rule:evenodd;stroke:#000000;stroke-width:7;fill:#cf7c2d" d="m166.73 817.24h-18.17c-7.45 0-5.35 4.01-5.35 10.68 0 7.8-0.26 11.38 8.55 9.62 4.92-0.98 16.76-1 17.1-1.07 2.35-0.46-1.94-18.76-2.13-19.23z"/>
    <g id="g3364" transform="translate(-148.56 -60.919)">
      <path id="path3308" style="fill-rule:evenodd;stroke:#000000;stroke-width:7;fill:#818285" d="m352.69 900.6c0-5.75-2.14 11.35-2.14 17.1 0 4.79-14.01 1.07-16.03 1.07-5.73 0-11.09-1.27-14.96-3.21-5.06-2.53-3.21-10.07-3.21-16.03v-16.03c0-5.69 1.01-9.38 2.14-13.89 2.36-9.44 3.06-5.83 9.62-3.21 5.73 2.29 8.49 6.41 16.03 6.41 5.15 0 9.62-10.05 9.62 0 0 2.49-2.14 9.48-2.14 14.96 0 5.57 1.07 7.26 1.07 12.83z"/>
      <path id="path3362" style="fill-rule:evenodd;stroke:#000000;stroke-width:7;fill:#818285" d="m328.11 866.4c-4.96-1.17-12.61-8.12-3.21-12.83 6.34-3.16 10-3.2 18.17-3.2 1.14 0 9.85 11.99 10.69 12.82 4.83 4.83-7.13 10.34-8.55 10.69-5.04 1.26-11.57-5.27-17.1-7.48z"/>
    </g>
    <path id="path3294" style="stroke-linejoin:round;fill-rule:evenodd;stroke:#000000;stroke-linecap:round;stroke-width:7;fill:#cf7c2d" d="m246.88 759.52c-3.22-0.64 3.02 15.97-2.14 28.86-0.01 0.04-15.95-1.07-18.16-1.07-9.81 0-22.24-0.17-32.07-2.14-11.48-2.29-25.4 0-37.4 0-12.08 0-9.41 3.44-11.76 12.83-1.55 6.18 0 14.95 0 21.37v17.1c0 6.09 0.02 13.84-1.07 18.17-2.44 9.79-3.67 7.72-13.89 12.83-9.85 4.92-33.013 2.43-42.752 0-6.198-1.55-16.287-1.07-22.444-1.07-7.695 0-6.471-14.04-8.55-19.24-2.437-6.09-1.069-18.03-1.069-24.58 0-12.05 1.077-22.48 3.206-33.13 1.569-7.84 2.189-9.67 7.482-14.96 4.148-4.15 6.902-6 12.825-7.48 5.192-1.3 8.339-4.28 17.1-4.28 6.202 0 14.452-1.07 21.372-1.07h19.24c8.94 0 18.48-1.07 27.79-1.07h21.37c6.28 0 11.16-0.92 16.03-2.13 6.08-1.52 15 0 21.38 0h17.1c2.17 0 4.27 0.71 6.41 1.06z"/>
    <path id="path3296" style="stroke-linejoin:round;stroke:#000000;stroke-linecap:round;stroke-width:7;fill:none" d="m148.56 785.67h-24.58"/>
    <path id="path3302" style="fill-rule:evenodd;stroke:#000000;stroke-width:7;fill:#f0a590" d="m119.7 641.96c8.55-1.59 26.71-4.01 38.48-1.07 9.02 2.26 16.45 6.97 22.44 11.76 6.75 5.4 6.92 5.29 10.69 12.82 2.2 4.42 2.37 11 5.34 14.97 3.89 5.18 6.51 7.07 5.34 11.75-1.14 4.57-5.34 4.36-5.34 12.83 0 10.24-2.72 9.71-6.41 17.1-3.21 6.41-6.43 10.73-8.55 16.03-2.98 7.44-3.97 10.56-9.62 12.82-5.54 2.22-11.48 8.75-19.24 10.69-7.17 1.79-15.94 1.07-23.51 1.07-11.11 0-18.24-8.1-24.58-16.03-4.02-5.03-4.28-20.68-4.28-27.79 0-12.99-0.05-23.3 3.21-36.34 2.05-8.2 1.55-17.37 3.21-25.65 1.67-8.39 10.96-5.67 12.82-14.96z"/>
    <path id="path3298" style="fill-rule:evenodd;stroke:#000000;stroke-width:7.3822;fill:#31231b" d="m93.913 761.24c-4.002 0-15.202-13.18-19.274-17.93-6.694-7.81-12.362-11.71-18.07-20.04-5.171-7.54-6.024-21.75-6.024-30.58 0-9.52-0.994-15.77 4.819-24.25 3.187-4.65 4.824-9.5 7.228-13.71 1.658-2.9 11.931-6.57 15.661-7.38 5.886-1.29 10.978-4.22 19.274-4.22 4.813 0 11.263-2.82 14.453-4.22 6.8-2.97 13.02-2.69 15.66-2.11 3.91 0.86-14.44 15.81-14.45 15.82-1.88 1.64 7.23 8.47 7.23 13.71 0 8.99-4.25 9.44 0 16.87 4.26 7.47-9.67 7.9 1.2 12.66 3.62 1.58-1.2 12.77-1.2 15.81 0 6.37-4.32 9.13-2.41 15.82 1.98 6.93 4.15 11.13-1.21 15.82-4.6 4.03-5.04 10.74-9.64 14.76-3.79 3.33-7.266 4.21-13.247 3.17z"/>
    <path id="path3304" style="fill-rule:evenodd;stroke:#000000;stroke-width:7;fill:#f0a590" d="m244.74 761.66c11.83-2.72 20.39-4.27 32.07-4.27 8.64 0 10.68 2.27 10.68 10.68 0 3.31-13.45 2.14-16.03 2.14-2.92 0 4.28 3.36 4.28 10.69 0 7.15-0.58 10.37-7.48 11.76-4.75 0.94-11.17-0.93-16.03-2.14-1.43-0.36-2.85-0.71-4.28-1.07-4.93-1.23-3.21-10.79-3.21-14.96v-12.83z"/>
    <path id="path3306" style="fill-rule:evenodd;stroke:#000000;stroke-width:7;fill:#f0a590" d="m207.34 811.89c0-2.63 14.44 0.05 16.03 6.42 1.48 5.93 2.22 10.33 1.07 14.96-1.46 5.81-9.99 7.48-14.96 7.48-5.29 0-3.21-8.08-3.21-12.83 0-5.54-0.03-10.54 1.07-16.03z"/>
    <path id="path3310" style="fill-rule:evenodd;stroke:#000000;stroke-width:7;fill:#1f31ed" d="m61.988 867.47v21.37c0 10.6 5.261 15.87 9.618 24.58 5.064 10.13 19.497 12.96 27.788 17.1 4.646 2.33 14.976 1.08 20.306 2.14 8.03 1.61 15 2.14 23.51 2.14 8.23 0 16.72 0.5 24.58-1.07 8.8-1.76 16.4-6.5 24.59-8.55 5.74-1.44 9.02-7.84 12.82-10.69 1.95-1.46 6.66-12.72 7.48-16.03 1.37-5.45 1.07-11.32 1.07-17.1 0-4.22-15.88-7.71-19.24-8.55-7.01-1.75-15.12-2.14-22.44-2.14-7.97 0-14.56-5.34-23.51-5.34h-24.58c-8.42 0-17.1 1.07-25.655 1.07h-19.237c-7.453 0-9.605-3.43-17.1 1.07z"/>
    <path id="path3322" style="fill-rule:evenodd;stroke:#000000;stroke-width:7;fill:#ece1dc" d="m645.53 919.84c-0.43 4.15 3.96 12.05 6.41 18.17 2.14 5.35 9.28 9.61 16.03 9.61 8.06 0 13.96-0.7 17.1-8.55 2.22-5.55 3.21-9.35 3.21-16.03 0-5.87-5.44-12.11-6.42-16.03-0.83-3.33-18.27-0.51-20.3 0-6.89 1.72-11.25 7.09-16.03 12.83z"/>
    <path id="path3320" style="stroke-linejoin:round;fill-rule:evenodd;stroke:#000000;stroke-linecap:round;stroke-width:7;fill:#a73a0f" d="m632.7 853.57c-4.17-0.59-15.86 0-23.51 0-6.41 0-10.16 5.22-14.96 6.42-4.75 1.18-5.35 15.01-5.35 19.23 0 11.68 4.31 19.53 13.9 26.72 6.63 4.98 11.38 11.39 19.23 19.24 1.97 1.97 4.28 3.56 6.42 5.34 6.59 5.5 4.79 2.69 10.68-3.2 4.68-4.67 5.35-6.56 5.35-13.9 0-9.02 15.85-4.3 22.44-3.2 5.88 0.98 13.88 0 18.17-1.07 4.79-1.2 11.88-6.77 17.1-10.69 6.19-4.64 7.93-6.06 9.62-12.82 1.47-5.89 2.14-10.54 2.14-17.1 0-4.83-17.59-7.58-22.45-8.55-7.62-1.53-13.92-2.14-22.44-2.14-6.13 0-12-0.6-18.17-2.14-7.75-1.94-15.62-1.12-23.51-4.27"/>
    <path id="path3354" style="fill-rule:evenodd;stroke:#000000;stroke-width:7;fill:#f0a590" d="m635.91 750.97c-6.22-0.35-19.98 1.42-28.86-2.13-6.01-2.41-12.4-5.13-17.1-7.48-2.94-1.47-6.44-11.51-9.62-13.9-2.32-1.74-3.2-12.94-3.2-17.1 0-4.85-10.09-8.25-12.83-9.62-4.33-2.16 5.13-8.33 8.55-11.75 3.73-3.73 3.76-9.1 7.48-12.83 5.01-5.01 9.33-12.43 12.83-17.1 4.05-5.4 6.2-9.83 13.89-11.76 6.24-1.56 11.33-2.13 18.17-2.13h21.38c5.61 0 17.01 7 21.37 9.62 7.98 4.78 13.83 5.61 19.24 12.82 4.61 6.15 7.55 9.9 9.62 18.17 1.66 6.63 4.27 9.32 4.27 17.1 0 7.95-0.89 10.33-3.2 14.96-3.39 6.76-4.71 8.98-8.55 12.83-3.79 3.79-4.96 11.36-8.55 14.96-5.52 5.52-12.45 7.29-19.24 10.69-3.52 1.76-13.12 0-17.1 0-6.16 0-8.55 1.96-8.55-5.35z"/>
    <path id="path3318" style="stroke-linejoin:round;fill-rule:evenodd;stroke:#000000;stroke-width:7;fill:#0fa77b" d="m657.28 748.84c0 6.31-21.18-5.54-25.65-1.07-3.15 3.15-2.79 16.27-5.34 21.37-3.39 6.79-6.08 8.95-9.62 16.03-2.94 5.89-7.65 4.05-12.82 5.35-5.78 1.44-14.42 0-20.31 0-11.69 0-16.03-2.25-16.03 9.62v17.1c0 5.15 17.62 8.81 21.37 10.68 6.46 3.23 12.04 5.35 20.31 5.35 5.62 0 10.51-4.1 12.82-6.41 8.18-8.18 5.91 7.6 7.49 13.89 1.67 6.71 3.66 14.65 5.34 21.37 0.89 3.57 13.17 3.21 17.1 3.21h23.51c11.52 0 24.62 1.59 35.27-1.07 5.12-1.28 3.21-11.14 3.21-16.03v-18.17c0-9.77-1.33-19.46-3.21-28.85-2.1-10.53-6.41-21.1-6.41-33.14 0-10.2 0.84-16.03-9.62-16.03-11.45 0-23.53-2.6-35.27-4.27-6.34-0.91 5.03 8.23-2.14 1.07z"/>
    <path id="path3324" style="fill-rule:evenodd;stroke:#000000;stroke-width:7;fill:#ece1dc" d="m684 907.01c-1.11 7.23 5.81 11.61 8.55 17.1 2.02 4.04 8.62 8.62 11.76 11.76 3.39 3.39 11.23 2.14 16.03 2.14 6.59 0 8.55-8.76 8.55-13.9 0-4.8-3.11-9.25-4.28-13.89-1.19-4.77-13.09-10.69-18.16-10.69-13.63 0-11.88 1.14-22.45 7.48z"/>
    <path id="path3326" style="fill-rule:evenodd;stroke:#000000;stroke-width:7;fill:#f0a590" d="m330.24 585.32c-3.79 0 9.7 16.11 12.83 19.23 2.62 2.63 14.76 6.9 17.1 7.49 4.25 1.06 12.96 2.7 19.24 4.27 4.93 1.23 11.96 0 17.1 0 6.33 0 9.89-1.21 13.89-3.21 5.75-2.87 9.69-4.4 12.83-10.68 3.48-6.97 8.19-9.98 9.62-17.1 1.08-5.45 7.17-7.02 8.55-13.9 1.21-6.09 3.2-8.86 3.2-17.1v-27.78c0-7.46-0.84-19.72-7.48-21.38-5.33-1.33-14.31-10.52-23.51-12.82-5.2-1.3-12.73 0-18.17 0-5.47 0-10.46-2.14-18.17-2.14-6.77 0-10.79 2.48-16.03 6.41-1.43 1.07-2.85 2.14-4.28 3.21-4.51 3.38-5.67 11.2-10.68 14.96-4.5 3.37-7.32 14.63-9.62 19.24-3.45 6.9-5.59 8.44-7.48 16.03-1.26 5-3.21 8.94-3.21 16.03 0 8.02-0.63 12.69 4.27 19.24z"/>
    <path id="path3328" style="fill-rule:evenodd;stroke:#000000;stroke-width:7;fill:#2b73ea" d="m330.24 586.39c-8.03-1.44-13.92 4.33-18.16 12.82-2.75 5.49-7.05 11.71-8.55 19.24-2.33 11.64-1.83 17.54-6.42 26.72-3.36 6.72-1.07 19.26-1.07 26.72v27.78c0 6.79 1.98 13.26 3.21 18.17 1.61 6.43 4.24 9.44 5.34 14.96 1.41 7.05 8.21 5.97 14.97 4.28 9.7-2.43 14.71 1.31 20.3-4.28 3.01-3 14.13-1.06 18.17-1.06 2.8 0 17-5.5 20.31-7.49 7.8-4.67 13.53-4.27 23.51-4.27 8.57 0 13.98 2.14 22.45 2.14 12.79 0 18.38-0.09 28.85-4.28 9.12-3.65 13.9 0.49 13.9-10.69 0-7.88-4.75-14.36-9.62-19.23-4.52-4.52-4.28-9.32-4.28-16.03 0-6.25-1.78-11.4-3.2-17.1-1.39-5.56-1.77-10.55-4.28-13.9-2.58-3.43-4.06-11.83-6.41-14.96-3.93-5.23-2.36-8.77-7.48-13.89-1.85-1.85-16.78-2.72-19.24-3.21-9.65-1.93-20.17-7.48-29.93-7.48-7.59 0-19.22-4.81-25.65-6.41-9.21-2.31-17.3-6.67-26.72-8.55z"/>
    <path id="path3358" style="fill-rule:evenodd;stroke:#000000;stroke-width:7;fill:#f0a590" d="m337.73 771.28c-0.52 2.39 0.06 12 1.06 16.03 1.69 6.76 3.99 11.18 6.42 16.03 4.17 8.35 9.46 10.04 16.03 14.97 7.73 5.8 14.28 7.09 19.24 2.13 4.42-4.43 1.63-11.69 0-14.96-2.91-5.81-10.4-8.28-17.1-9.62-7.73-1.54-7.49-1.57-7.49-9.62v-16.03c0-6.82-4.31-7.48-10.68-7.48-5.03 0-6.53 3.76-7.48 8.55z"/>
    <path id="path3360" style="fill-rule:evenodd;stroke:#000000;stroke-width:7;fill:#f0a590" d="m409.33 742.42c5.03 5.44 3.01 18.44 5.35 27.79 1.12 4.5 4.27 10.8 4.27 17.1 0 4.15 6.44 9.65 9.62 12.83 4.82 4.82 14.87 7.48 21.38 7.48 5.53 0 6.41-5.81 6.41-11.76 0-6.58-11.29-11.29-14.96-14.96-4.75-4.74-5.99-9.03-9.62-11.76-4.32-3.23-5.35-9.61-7.48-13.89-2.96-5.9-2.53-10.4-5.35-16.03-3.27-6.55-9.62-3.76-9.62 3.2z"/>
    <path id="path3350" style="fill-rule:evenodd;stroke:#000000;stroke-width:7;fill:#4baa8e" d="m317.42 745.63c-2.3 5.03 1.81 15.79 3.21 21.38 1.26 5.05 16.45 4.27 20.3 4.27 8.08 0 13.34-1.73 19.24-3.21 6.28-1.57 8.95-0.51 10.69-7.48 1.89-7.55-1.37-9.47 5.34-12.82 7.82-3.91 19.56 3.84 22.44 9.62 2.6 5.18 11.31-3.21 17.1-3.21 6.15 0 15.65-0.56 18.17-1.07 2.02-0.4-7.94-21.1-8.55-23.51-1.41-5.67-6.12-11.27-9.62-13.9-5.44-4.08-15.37-2.13-22.44-2.13h-21.37-19.24c-7.44 0-12.35 4.3-20.31 7.48-3.19 1.28-9.09 8.15-13.89 11.75-1.85 1.39-1.07 11.15-1.07 12.83z"/>
    <path id="path3334" style="stroke-linejoin:round;fill-rule:evenodd;stroke:#000000;stroke-linecap:round;stroke-width:7;fill:#2b73ea" d="m366.58 663.34l35.27 30.99-9.62 36.34s-9.62 19.24-13.89 18.17c-4.28-1.07-48.1-22.45-48.1-22.45l-34.2-47.02v-12.83l48.1-29.92 22.44 26.72z"/>
    <path id="path3336" style="fill-rule:evenodd;fill:#2b73ea" d="m346.28 622.72l-7.49 58.78-37.4-3.2v-27.79l44.89-27.79z"/>
    <path id="path3338" style="stroke-linejoin:round;stroke:#000000;stroke-linecap:round;stroke-width:7;fill:none" d="m430.71 695.4l4.27 24.58-4.27-24.58z"/>
    <path id="path3342" style="stroke:#000000;stroke-width:1px;fill:none" d="m369.79 765.94l1.07-22.45"/>
    <path id="path3352" style="fill-rule:evenodd;stroke:#000000;stroke-width:7;fill:#663519" d="m353.76 527.6c-7.71-3.76-46.39 20.88-36.34 7.49 28.54-38.06-21.01-24.03 5.34-27.79 38.84-5.55-8.81-14.96 21.38-14.96 18.24 0 11.75 1.01 11.75-10.69 0-4.53 14.97 0.35 14.97-11.76 0-8.32 19.59 2.38 24.58-4.27 2.75-3.68 27.65 3.2 34.2 3.2 9.94 0 22.44 5.06 22.44 9.62 0 6.75 3.23 6.32 1.07 14.96-1.91 7.67 53.44 10.51 13.9 17.1-7.91 1.32 22.53 19.73 12.82 24.59-6.49 3.24 12.83 9.21-26.72 4.27-1-0.12 6.03 15.07 6.41 16.03 0.85 2.12-1.31 14.22-4.27 14.96-5.42 1.36-1.49-19.89-13.89-7.48-4.43 4.43-17.77-27.25-19.24-33.13-3.52-14.07-9.11 13.85-18.17-4.27-4.74-9.48-13.12 5.97-23.51-9.62-3.54-5.3-10.92 7-17.1 8.55-2.75 0.68-6.72 2.04-9.62 3.2z"/>
    <path id="path3356" style="fill-rule:evenodd;stroke:#000000;stroke-width:7;fill:#2a1a10" d="m642.32 632.34c-1.42 0-1.42 0 0 0 10.05 0-21.18-5.05-24.58 8.55-2.89 11.55-0.56 19.19 4.27 28.86 4.68 9.35 14.97-0.62 14.97 12.82 0 13-6.42 25.62-6.42 38.48 0 11.33 7.35 18.97 10.69 25.65 2.83 5.66 1.14 58.54 9.62 28.86 0.4-1.42 0.71-2.85 1.07-4.28 1.47-5.87 7.89 31.52 23.51 10.69 3.78-5.04 10.99 13.28 22.45-9.62 1.07-2.16 21.4-4.81 24.58-4.28 32.02 5.34 8.57-1.01 1.07-16.03-0.72-1.42-1.43-2.85-2.14-4.27-4.57-9.14-3.15-22.34-8.55-33.13-4.54-9.09-5.35-16.44-5.35-26.72 0-12.23-6.48-14.04-11.75-24.58-2.68-5.35-12.94-11.79-17.1-12.83-4.4-1.1-11.78-8.56-16.03-10.69-5.56-2.77-11.36-3.9-20.31-7.48z"/>
    <path id="path3370" style="fill-rule:evenodd;stroke:#000000;stroke-width:7;fill:#f0a590" d="m401.85 703.95c6.36 1.19 6.03 6.61 10.69 12.82 2.05 2.74-0.68 13.41-1.07 14.97-1.27 5.08-6.61 6.19-11.76 7.48-5.67 1.42-9.62-6.44-9.62-10.69 0-3.02 7.42-10.43 8.55-14.96 0.89-3.52 1.81-6.11 3.21-9.62z"/>
    <path id="path3372" style="fill-rule:evenodd;stroke:#000000;stroke-width:7;fill:#f0a590" d="m464.91 716.77c0.63 4.69 2.14 11.89 2.14 19.24 0 7.79-12.62 2.73-14.97 2.14-4.42-1.11-7.62-10.2-8.55-13.9-1.68-6.72 4.95-5.88 9.62-9.61 3.31-2.65 9.03 0.5 11.76 2.13z"/>
    <g id="g3374" transform="translate(142.27 -164.21)">
      <path id="path3376" style="fill-rule:evenodd;stroke:#000000;stroke-width:7;fill:#818285" d="m352.69 900.6c0-5.75-2.14 11.35-2.14 17.1 0 4.79-14.01 1.07-16.03 1.07-5.73 0-11.09-1.27-14.96-3.21-5.06-2.53-3.21-10.07-3.21-16.03v-16.03c0-5.69 1.01-9.38 2.14-13.89 2.36-9.44 3.06-5.83 9.62-3.21 5.73 2.29 8.49 6.41 16.03 6.41 5.15 0 9.62-10.05 9.62 0 0 2.49-2.14 9.48-2.14 14.96 0 5.57 1.07 7.26 1.07 12.83z"/>
      <path id="path3378" style="fill-rule:evenodd;stroke:#000000;stroke-width:7;fill:#818285" d="m328.11 866.4c-4.96-1.17-12.61-8.12-3.21-12.83 6.34-3.16 10-3.2 18.17-3.2 1.14 0 9.85 11.99 10.69 12.82 4.83 4.83-7.13 10.34-8.55 10.69-5.04 1.26-11.57-5.27-17.1-7.48z"/>
    </g>
    <g id="g3382" transform="translate(198.92 -91.533)">
      <path id="path3384" style="fill-rule:evenodd;stroke:#000000;stroke-width:7;fill:#818285" d="m352.69 900.6c0-5.75-2.14 11.35-2.14 17.1 0 4.79-14.01 1.07-16.03 1.07-5.73 0-11.09-1.27-14.96-3.21-5.06-2.53-3.21-10.07-3.21-16.03v-16.03c0-5.69 1.01-9.38 2.14-13.89 2.36-9.44 3.06-5.83 9.62-3.21 5.73 2.29 8.49 6.41 16.03 6.41 5.15 0 9.62-10.05 9.62 0 0 2.49-2.14 9.48-2.14 14.96 0 5.57 1.07 7.26 1.07 12.83z"/>
      <path id="path3386" style="fill-rule:evenodd;stroke:#000000;stroke-width:7;fill:#818285" d="m328.11 866.4c-4.96-1.17-12.61-8.12-3.21-12.83 6.34-3.16 10-3.2 18.17-3.2 1.14 0 9.85 11.99 10.69 12.82 4.83 4.83-7.13 10.34-8.55 10.69-5.04 1.26-11.57-5.27-17.1-7.48z"/>
    </g>
    <path id="path3380" style="fill-rule:evenodd;stroke:#000000;stroke-width:7;fill:#f0a590" d="m566.44 799.07c-4.67-3.05-15.34-7.12-22.44-5.35-2.81 0.71-5.35 11.86-5.35 14.97 0 7.77 11 8.55 17.1 8.55 10.08 0 11.76 5.38 11.76-6.42 0-7.52 3.87-3.52-1.07-11.75z"/>
    <g id="g3388" transform="matrix(-.20791 -.97815 .97815 -.20791 -496.47 1367.6)">
      <path id="path3390" style="fill-rule:evenodd;stroke:#000000;stroke-width:7;fill:#818285" d="m352.69 900.6c0-5.75-2.14 11.35-2.14 17.1 0 4.79-14.01 1.07-16.03 1.07-5.73 0-11.09-1.27-14.96-3.21-5.06-2.53-3.21-10.07-3.21-16.03v-16.03c0-5.69 1.01-9.38 2.14-13.89 2.36-9.44 3.06-5.83 9.62-3.21 5.73 2.29 8.49 6.41 16.03 6.41 5.15 0 9.62-10.05 9.62 0 0 2.49-2.14 9.48-2.14 14.96 0 5.57 1.07 7.26 1.07 12.83z"/>
      <path id="path3392" style="fill-rule:evenodd;stroke:#000000;stroke-width:7;fill:#818285" d="m328.11 866.4c-4.96-1.17-12.61-8.12-3.21-12.83 6.34-3.16 10-3.2 18.17-3.2 1.14 0 9.85 11.99 10.69 12.82 4.83 4.83-7.13 10.34-8.55 10.69-5.04 1.26-11.57-5.27-17.1-7.48z"/>
    </g>
    <g id="g3394" transform="translate(-3.0775 -.68870)">
      <path id="path3396" style="fill-rule:evenodd;stroke:#000000;stroke-width:7;fill:#818285" d="m352.69 900.6c0-5.75-2.14 11.35-2.14 17.1 0 4.79-14.01 1.07-16.03 1.07-5.73 0-11.09-1.27-14.96-3.21-5.06-2.53-3.21-10.07-3.21-16.03v-16.03c0-5.69 1.01-9.38 2.14-13.89 2.36-9.44 3.06-5.83 9.62-3.21 5.73 2.29 8.49 6.41 16.03 6.41 5.15 0 9.62-10.05 9.62 0 0 2.49-2.14 9.48-2.14 14.96 0 5.57 1.07 7.26 1.07 12.83z"/>
      <path id="path3398" style="fill-rule:evenodd;stroke:#000000;stroke-width:7;fill:#818285" d="m328.11 866.4c-4.96-1.17-12.61-8.12-3.21-12.83 6.34-3.16 10-3.2 18.17-3.2 1.14 0 9.85 11.99 10.69 12.82 4.83 4.83-7.13 10.34-8.55 10.69-5.04 1.26-11.57-5.27-17.1-7.48z"/>
    </g>
    <g id="g3400" transform="translate(49.291 -41.301)">
      <path id="path3402" style="fill-rule:evenodd;stroke:#000000;stroke-width:7;fill:#818285" d="m352.69 900.6c0-5.75-2.14 11.35-2.14 17.1 0 4.79-14.01 1.07-16.03 1.07-5.73 0-11.09-1.27-14.96-3.21-5.06-2.53-3.21-10.07-3.21-16.03v-16.03c0-5.69 1.01-9.38 2.14-13.89 2.36-9.44 3.06-5.83 9.62-3.21 5.73 2.29 8.49 6.41 16.03 6.41 5.15 0 9.62-10.05 9.62 0 0 2.49-2.14 9.48-2.14 14.96 0 5.57 1.07 7.26 1.07 12.83z"/>
      <path id="path3404" style="fill-rule:evenodd;stroke:#000000;stroke-width:7;fill:#818285" d="m328.11 866.4c-4.96-1.17-12.61-8.12-3.21-12.83 6.34-3.16 10-3.2 18.17-3.2 1.14 0 9.85 11.99 10.69 12.82 4.83 4.83-7.13 10.34-8.55 10.69-5.04 1.26-11.57-5.27-17.1-7.48z"/>
    </g>
    <path id="path3410" style="fill-rule:evenodd;stroke:#000000;stroke-width:7;fill:#a02c2c" d="m453.41 868.79c4.37 6.63 7.19 28.57 13.64 35.02 7.29 7.29 0.29 9.61 16.03 9.61h28.85 24.58c8.27 0 11.76 0.03 11.76-8.55 0-8.01-2.05-11.63-5.34-16.03-4.54-6.05-4.9-10.24-8.55-13.89-7.88-7.88-9.35-6.41-25.65-6.41h-40.62c-5.84 0-9.9-4.55-14.7 0.25z"/>
    <path id="path3412" style="fill-rule:evenodd;stroke:#000000;stroke-width:7;fill:#782121" d="m454.22 869.61c-8.55 0 0 17.1 0 25.65 0 7.38-0.62 12.22-4.27 17.1-4.04 5.38 2.16 12.84 6.41 16.03 3.69 2.77 11.25 13.58 10.69 8.55-1.04-9.23 6.41 3.49 6.41-5.35 0-5.99 1.07-10.91 1.07-17.1 0-8.5-1.59-15.42-3.21-23.51-1.04-5.21-7.59-9.72-10.69-12.82-3.8-3.81-2.33-1.76-6.41-8.55z"/>
    <path id="path3414" style="stroke-linejoin:round;fill-rule:evenodd;stroke:#000000;stroke-linecap:round;stroke-width:7;fill:#782121" d="m467.63 942.33c-5.93-5.93 20.99 1.4 29.27 1.02 11.77-0.55 29.71 1.2 41.75 3.21 7.45 1.24 10.69-0.7 10.69-7.49 0-5.97 2.14-7.71 2.14-14.96 0-6.22-0.81-10.71-2.14-16.03-1.77-7.09-19.06-7.48-26.72-7.48-8.67 0-17.99-2.14-26.72-2.14-8.03 0-17.12-1.28-23.51 0-4.42 0.89-3.21 12.92-3.21 17.1v17.1c0-4.08-2.27 5.39-1.55 9.67z"/>
    <g id="g3585" transform="matrix(-.72966 .37801 .37338 .73869 33.528 114.68)">
      <path id="path3416" style="stroke-linejoin:round;fill-rule:evenodd;stroke:#000000;stroke-linecap:round;stroke-width:3.5588;fill:#fedfdf" d="m174.51 668.75a14.074 15.28 0 1 1 -28.14 0 14.074 15.28 0 1 1 28.14 0z" transform="matrix(.97604 0 0 .91343 6.4725 59.538)"/>
      <path id="path3579" style="stroke-linejoin:round;fill-rule:evenodd;stroke:#000000;stroke-linecap:round;stroke-width:4;fill:#000000" d="m170.18 671.26a7.2277 7.2277 0 1 1 -14.46 0 7.2277 7.2277 0 1 1 14.46 0z"/>
      <path id="path3581" style="fill-rule:evenodd;fill:#fedfdf" d="m165.58 671.92a2.9568 3.2853 0 1 1 -5.91 0 2.9568 3.2853 0 1 1 5.91 0z" transform="matrix(1.2179 0 0 1.4962 -36.429 -334.03)"/>
      <path id="path3583" style="fill-rule:evenodd;fill:#fedfdf" d="m167.55 662.07v7.88l4.6-3.29-4.6-4.59z"/>
    </g>
    <g id="g3601" transform="matrix(.74528 .13072 -.11538 .84442 365.42 -28.813)">
      <path id="path3603" style="stroke-linejoin:round;fill-rule:evenodd;stroke:#000000;stroke-linecap:round;stroke-width:3.5588;fill:#fedfdf" d="m174.51 668.75a14.074 15.28 0 1 1 -28.14 0 14.074 15.28 0 1 1 28.14 0z" transform="matrix(.97604 0 0 .91343 6.4725 59.538)"/>
      <path id="path3605" style="stroke-linejoin:round;fill-rule:evenodd;stroke:#000000;stroke-linecap:round;stroke-width:4;fill:#000000" d="m170.18 671.26a7.2277 7.2277 0 1 1 -14.46 0 7.2277 7.2277 0 1 1 14.46 0z"/>
      <path id="path3607" style="fill-rule:evenodd;fill:#fedfdf" d="m165.58 671.92a2.9568 3.2853 0 1 1 -5.91 0 2.9568 3.2853 0 1 1 5.91 0z" transform="matrix(1.2179 0 0 1.4962 -36.429 -334.03)"/>
      <path id="path3609" style="fill-rule:evenodd;fill:#fedfdf" d="m167.55 662.07v7.88l4.6-3.29-4.6-4.59z"/>
    </g>
    <g id="g3611" transform="matrix(.62705 .34250 -.32088 .66930 715.42 170.08)">
      <path id="path3613" style="stroke-linejoin:round;fill-rule:evenodd;stroke:#000000;stroke-linecap:round;stroke-width:3.5588;fill:#fedfdf" d="m174.51 668.75a14.074 15.28 0 1 1 -28.14 0 14.074 15.28 0 1 1 28.14 0z" transform="matrix(.97604 0 0 .91343 6.4725 59.538)"/>
      <path id="path3615" style="stroke-linejoin:round;fill-rule:evenodd;stroke:#000000;stroke-linecap:round;stroke-width:4;fill:#000000" d="m170.18 671.26a7.2277 7.2277 0 1 1 -14.46 0 7.2277 7.2277 0 1 1 14.46 0z"/>
      <path id="path3617" style="fill-rule:evenodd;fill:#fedfdf" d="m165.58 671.92a2.9568 3.2853 0 1 1 -5.91 0 2.9568 3.2853 0 1 1 5.91 0z" transform="matrix(1.2179 0 0 1.4962 -36.429 -334.03)"/>
      <path id="path3619" style="fill-rule:evenodd;fill:#fedfdf" d="m167.55 662.07v7.88l4.6-3.29-4.6-4.59z"/>
    </g>
    <path id="path3621" style="stroke-linejoin:round;stroke:#000000;stroke-linecap:round;stroke-width:7;fill:none" d="m155.07 713.97c-1.4 5.2 2.99 6.28 6.57 9.86 2.78 2.78 12.61 5.12 15.77 5.91 2.88 0.72 4.61 1.32 7.88 1.32"/>
    <path id="path3623" style="stroke-linejoin:round;stroke:#000000;stroke-linecap:round;stroke-width:7;fill:none" d="m344.3 565.48c0.13 0.03 8.46 8.47 11.17 10.51 5.44 4.07 7.47 8.03 14.46 9.2 6.18 1.03 12.9 4.03 19.05 5.26 5.22 1.04 11.85 0 17.09 0 1.75 0 1.83-1.32 4.6-1.32"/>
    <path id="path3625" style="stroke-linejoin:round;stroke:#000000;stroke-linecap:round;stroke-width:7;fill:none" d="m379.78 568.1c2.19 0 3.14 3.42 5.26 3.95 2.9 0.72 3.25-0.63 4.6-1.97"/>
    <path id="path3627" style="stroke:#000000;stroke-linecap:round;stroke-width:7;fill:none" d="m605.81 721.2c2.4 0.6-5.55 8.18-5.91 8.54-2.89 2.89-3.77 4.23-7.88 5.26-3.14 0.78-2.7-0.9-3.95-1.31"/>
    <g id="g3629" transform="matrix(.74528 .13072 -.11538 .84442 322.79 -42.47)">
      <path id="path3631" style="stroke-linejoin:round;fill-rule:evenodd;stroke:#000000;stroke-linecap:round;stroke-width:3.5588;fill:#fedfdf" d="m174.51 668.75a14.074 15.28 0 1 1 -28.14 0 14.074 15.28 0 1 1 28.14 0z" transform="matrix(.97604 0 0 .91343 6.4725 59.538)"/>
      <path id="path3633" style="stroke-linejoin:round;fill-rule:evenodd;stroke:#000000;stroke-linecap:round;stroke-width:4;fill:#000000" d="m170.18 671.26a7.2277 7.2277 0 1 1 -14.46 0 7.2277 7.2277 0 1 1 14.46 0z"/>
      <path id="path3635" style="fill-rule:evenodd;fill:#fedfdf" d="m165.58 671.92a2.9568 3.2853 0 1 1 -5.91 0 2.9568 3.2853 0 1 1 5.91 0z" transform="matrix(1.2179 0 0 1.4962 -36.429 -334.03)"/>
      <path id="path3637" style="fill-rule:evenodd;fill:#fedfdf" d="m167.55 662.07v7.88l4.6-3.29-4.6-4.59z"/>
    </g>
    <path id="path3659" style="stroke:#000000;stroke-linecap:round;stroke-width:7;fill:none" d="m242.67 724.81l-4.29 43.92 2.68-46.07-2.68 47.14" transform="translate(-36.152 89.664)"/>
    <path id="path3661" style="stroke:#000000;stroke-linecap:round;stroke-width:7;fill:none" d="m437.66 741.95l-1.08 47.14 2.15-49.82" transform="translate(-36.152 89.664)"/>
    <path id="path3663" style="stroke:#000000;stroke-linecap:round;stroke-width:7;fill:none" d="m386.23 781.05l-2.68 47.14" transform="translate(-36.152 89.664)"/>
    <path id="path3665" style="stroke:#000000;stroke-linecap:round;stroke-width:7;fill:none" d="m321.41 749.45l42.32-4.82" transform="translate(-36.152 89.664)"/>
    <path id="path3667" style="stroke:#000000;stroke-linecap:round;stroke-width:7;fill:none" d="m530.87 620.88l-1.61 43.39v-0.53" transform="translate(-36.152 89.664)"/>
    <path id="path3669" style="stroke:#000000;stroke-linecap:round;stroke-width:7;fill:none" d="m669.61 542.14l18.21 2.68" transform="translate(-36.152 89.664)"/>
  </g>
  <metadata>
    <rdf:RDF>
      <cc:Work>
        <dc:format>image/svg+xml</dc:format>
        <dc:type rdf:resource="http://purl.org/dc/dcmitype/StillImage"/>
        <cc:license rdf:resource="http://creativecommons.org/licenses/publicdomain/"/>
        <dc:publisher>
          <cc:Agent rdf:about="http://openclipart.org/">
            <dc:title>Openclipart</dc:title>
          </cc:Agent>
        </dc:publisher>
      </cc:Work>
      <cc:License rdf:about="http://creativecommons.org/licenses/publicdomain/">
        <cc:permits rdf:resource="http://creativecommons.org/ns#Reproduction"/>
        <cc:permits rdf:resource="http://creativecommons.org/ns#Distribution"/>
        <cc:permits rdf:resource="http://creativecommons.org/ns#DerivativeWorks"/>
      </cc:License>
    </rdf:RDF>
  </metadata>
</svg>
